<svg xmlns="http://www.w3.org/2000/svg" viewBox="0 0 668.6 352.4" role="img">
	<title>Cisco</title>
	<g fill="#00a7e0">
		<rect x="189.1" y="234.2" width="29.3" height="116.2"/>
		<path d="M454.8 267.5c-1.2-.6-10.6-6.2-24.6-6.2-19 0-32.1 13.3-32.1 31 0 17.3 12.6 31 32.1 31 13.8 0 23.4-5.5 24.6-6.1v31.2c-3.7 1.1-13.7 4.1-26.7 4.1-33 0-61.9-22.7-61.9-60.2 0-34.7 26.2-60.1 61.9-60.1 13.8 0 24 3.3 26.7 4.1v31.2zM148.8 267.5c-1.2-.6-10.6-6.2-24.6-6.2-19 0-32.1 13.3-32.1 31 0 17.3 12.6 31 32.1 31 13.7 0 23.3-5.5 24.6-6.1v31.2c-3.7 1.1-13.7 4.1-26.8 4.1-32.9 0-61.8-22.7-61.8-60.2 0-34.7 26.2-60.1 61.8-60.1 13.8 0 24 3.3 26.8 4.1v31.2zM608.4 292.2c0 33.2-25.6 60.2-61.4 60.2-35.7 0-61.4-26.9-61.4-60.2 0-33.2 25.6-60.1 61.4-60.1s61.4 26.9 61.4 60.1m-61.4-30.5c-17.4 0-30.3 13.7-30.3 30.5 0 16.9 12.9 30.6 30.3 30.6s30.4-13.7 30.4-30.6c0-16.8-13-30.5-30.4-30.5M329.6 260.6c-.4-.1-12.8-3.6-22.9-3.6-11.8 0-18.1 4-18.1 9.6 0 7 8.6 9.5 13.4 11l8.1 2.6c19 6 27.7 19.1 27.7 33.2 0 29.2-25.7 39-48.1 39-15.6 0-30.2-2.9-31.6-3.2v-26.8c2.6.6 14.9 4.3 27.7 4.3 14.6 0 21.3-4.2 21.3-10.9 0-5.9-5.8-9.2-13-11.5-1.8-.6-4.5-1.4-6.3-2.1-16.3-5.1-29.9-14.7-29.9-34 0-21.7 16.3-36.3 43.3-36.3 14.3 0 27.7 3.5 28.6 3.7v25zM29.1 109.3c0-8-6.5-14.5-14.5-14.5S0 101.3 0 109.3v30.5c0 8.1 6.6 14.5 14.6 14.5s14.5-6.4 14.5-14.5zM109.1 69.3c0-8-6.5-14.5-14.6-14.5-8 0-14.6 6.6-14.6 14.5v70.5c0 8.1 6.5 14.5 14.6 14.5 8 0 14.6-6.4 14.6-14.5zM189 14.5c0-8-6.5-14.5-14.5-14.5s-14.6 6.5-14.6 14.5v154.3c0 8 6.5 14.6 14.6 14.6 8 0 14.5-6.5 14.5-14.6zM269 69.3c0-8-6.5-14.5-14.5-14.5S240 61.4 240 69.3v70.5c0 8.1 6.5 14.5 14.5 14.5s14.5-6.4 14.5-14.5zM348.8 109.3c0-8-6.5-14.5-14.5-14.5s-14.6 6.5-14.6 14.5v30.5c0 8.1 6.5 14.5 14.6 14.5 7.9 0 14.5-6.4 14.5-14.5zM428.8 69.3c0-8-6.5-14.5-14.5-14.5s-14.5 6.6-14.5 14.5v70.5c0 8.1 6.5 14.5 14.5 14.5s14.5-6.4 14.5-14.5zM508.8 14.5c0-8-6.5-14.5-14.5-14.5s-14.5 6.5-14.5 14.5v154.3c0 8 6.5 14.6 14.5 14.6s14.5-6.5 14.5-14.6zM588.8 69.3c0-8-6.5-14.5-14.7-14.5-8 0-14.5 6.6-14.5 14.5v70.5c0 8.1 6.5 14.5 14.5 14.5 8.2 0 14.7-6.4 14.7-14.5zM668.6 109.3c0-8-6.5-14.5-14.5-14.5s-14.5 6.5-14.5 14.5v30.5c0 8.1 6.5 14.5 14.5 14.5s14.5-6.4 14.5-14.5z"/>
	</g>
</svg>
