<svg xmlns="http://www.w3.org/2000/svg" viewBox="21 0 25 18" role="img">
	<title>Fortinet</title>
	<path fill="#ee2e24" d="M43.276 17.767c1.38-.469 2.454-2.058 2.713-4.056v-.578h-7.075v4.634zm2.713-13.13v-.523C45.718 2.029 44.564.386 43.093 0h-4.179v4.636zM21.085 13.134v.572c.256 2 1.33 3.593 2.714 4.061h4.34v-4.633zM23.98.001c-1.469.386-2.626 2.03-2.895 4.117v.519h7.054V.001zm22.01 6.566h-7.076v4.636h7.075zm-15.924 11.2h6.921v-4.634h-6.921zM36.987.001h-6.921v4.636h6.921zM21.085 11.203h7.054V6.567h-7.054z"/>
</svg>
